<svg width="14" height="14" viewBox="0 0 14 14" fill="none" xmlns="http://www.w3.org/2000/svg">
<path d="M12.8895 8.88704C12.4255 8.47934 11.8628 8.12708 11.2169 7.84007C10.9408 7.71745 10.6177 7.84178 10.4951 8.11778C10.3725 8.39378 10.4968 8.71689 10.7728 8.83961C11.3174 9.08165 11.7868 9.37399 12.1675 9.70863C12.637 10.1211 12.9062 10.7184 12.9062 11.3477V12.3594C12.9062 12.6609 12.6609 12.9062 12.3594 12.9062H1.64062C1.3391 12.9062 1.09375 12.6609 1.09375 12.3594V11.3477C1.09375 10.7184 1.36302 10.1211 1.83246 9.70863C2.38499 9.22307 3.99486 8.09375 7 8.09375C9.2314 8.09375 11.0469 6.27827 11.0469 4.04688C11.0469 1.81548 9.2314 0 7 0C4.7686 0 2.95312 1.81548 2.95312 4.04688C2.95312 5.35136 3.5737 6.51347 4.535 7.254C2.77603 7.64066 1.68185 8.38492 1.11052 8.88704C0.404816 9.50708 0 10.4039 0 11.3477V12.3594C0 13.2641 0.735931 14 1.64062 14H12.3594C13.2641 14 14 13.2641 14 12.3594V11.3477C14 10.4039 13.5952 9.50708 12.8895 8.88704ZM4.04688 4.04688C4.04688 2.41853 5.37166 1.09375 7 1.09375C8.62834 1.09375 9.95312 2.41853 9.95312 4.04688C9.95312 5.67522 8.62834 7 7 7C5.37166 7 4.04688 5.67522 4.04688 4.04688Z" fill="#0094FF"/>
</svg>
